<?xml version="1.0" encoding="utf-8"?>
<!-- Generator: Adobe Illustrator 19.2.1, SVG Export Plug-In . SVG Version: 6.00 Build 0)  -->
<!DOCTYPE svg PUBLIC "-//W3C//DTD SVG 1.1//EN" "http://www.w3.org/Graphics/SVG/1.1/DTD/svg11.dtd">
<svg version="1.1" id="Layer_1" xmlns="http://www.w3.org/2000/svg" xmlns:xlink="http://www.w3.org/1999/xlink" x="0px" y="0px"
	 viewBox="0 0 20 20" style="enable-background:new 0 0 20 20;" xml:space="preserve">
<style type="text/css">
	.st0{fill:#FFFFFF;}
</style>
<g>
	<g>
		<path class="st0" d="M10,3.1c2.1,0,4.1,0.2,5.8,0.5C13.4,2,10.4,1.1,8.2,1C8.1,1,8.1,1.1,8,1.2c-0.1,0.5-0.2,1.2-0.2,2
			C8.5,3.1,9.3,3.1,10,3.1z"/>
	</g>
	<path class="st0" d="M15.9,6.3c0.2,1.8,0.2,5.4-0.1,6.9l0,0c-0.3,0.4-1.7,1.5-3.5,2.6c-1.4,0.9-2.6,1.5-3.6,1.8
		c-0.2-2.2-0.2-7.3,0.1-9C11,7,14.1,6.4,15.9,6.3 M16.7,5C16.7,5,16.7,5,16.7,5c-2.5,0.1-6.3,0.8-8.8,2.8C7.8,7.9,7.8,8,7.7,8.2
		c-0.4,1.9-0.4,9.1,0,10.7c0,0.1,0.1,0.2,0.2,0.2c0,0,0,0,0,0c2.5-0.1,7.9-4,8.8-5.1c0.1-0.1,0.2-0.2,0.2-0.4c0.4-1.9,0.4-6.8,0-8.3
		C16.9,5.1,16.8,5,16.7,5L16.7,5z"/>
	<g>
		<path class="st0" d="M6.8,13.6c0-2,0.1-4.5,0.3-5.6c0.1-0.3,0.2-0.6,0.4-0.7c1.2-1,2.8-1.7,4.6-2.2c1.7-0.5,3.3-0.6,4.3-0.7
			c0,0,0,0,0,0c-3.7-0.9-9.3-0.9-13,0c-0.1,0-0.3,0.1-0.3,0.3c-0.6,1.8-0.6,7.5,0,9.2c0,0.1,0.2,0.2,0.3,0.3c1,0.3,2.1,0.4,3.3,0.6
			C6.8,14.4,6.8,14,6.8,13.6z"/>
	</g>
</g>
</svg>
